<svg id="svg" version="1.1" xmlns="http://www.w3.org/2000/svg" xmlns:xlink="http://www.w3.org/1999/xlink" width="400" height="293.9811775005471" viewBox="0, 0, 400,293.9811775005471"><g id="svgg"><path id="path0" d="M213.679 47.765 C 212.610 48.665,213.172 50.421,214.592 50.611 C 215.898 50.786,216.874 49.373,216.263 48.192 C 215.759 47.217,214.565 47.020,213.679 47.765 M196.371 47.612 C 195.611 47.918,195.485 49.344,196.159 50.018 L 196.652 50.511 203.341 50.464 L 210.030 50.417 210.348 50.023 C 210.845 49.410,210.782 48.282,210.228 47.845 C 209.804 47.513,197.149 47.299,196.371 47.612 M167.667 84.667 L 167.667 98.833 181.917 98.833 L 196.167 98.833 196.167 84.667 L 196.167 70.500 181.917 70.500 L 167.667 70.500 167.667 84.667 M212.833 119.000 L 212.833 133.167 227.083 133.167 L 241.333 133.167 241.333 119.000 L 241.333 104.833 227.083 104.833 L 212.833 104.833 212.833 119.000 M176.833 150.667 L 176.833 164.833 191.083 164.833 L 205.333 164.833 205.333 150.667 L 205.333 136.500 191.083 136.500 L 176.833 136.500 176.833 150.667 M230.750 172.355 C 227.908 174.929,223.550 178.869,221.065 181.110 L 216.546 185.184 216.453 186.543 C 216.383 187.575,216.421 188.019,216.613 188.390 C 216.972 189.085,224.639 197.497,225.064 197.663 C 225.258 197.738,225.701 197.995,226.049 198.233 C 226.397 198.472,226.890 198.667,227.146 198.667 C 227.401 198.667,227.979 198.860,228.430 199.097 C 228.983 199.387,229.575 199.543,230.250 199.578 C 230.800 199.606,231.493 199.683,231.790 199.750 C 232.610 199.933,233.100 199.732,233.513 199.042 C 234.535 197.330,235.096 197.026,236.218 197.575 C 236.868 197.893,237.572 198.051,238.986 198.195 C 241.204 198.420,241.406 198.322,241.231 197.097 C 241.014 195.585,240.814 195.130,240.067 194.450 C 239.015 193.493,238.307 191.982,238.257 190.592 C 238.231 189.854,238.129 189.401,237.942 189.195 C 237.573 188.787,237.595 188.228,238.000 187.712 C 238.210 187.445,238.334 187.035,238.334 186.603 C 238.335 186.225,238.414 185.632,238.511 185.284 L 238.686 184.652 239.248 184.999 L 239.810 185.346 241.530 184.515 C 244.579 183.041,246.281 182.995,247.372 184.359 C 247.671 184.734,248.355 185.339,248.890 185.704 C 250.666 186.913,250.883 189.243,249.512 192.371 C 248.556 194.550,248.624 194.561,250.830 192.575 C 253.000 190.622,252.979 190.654,252.523 190.075 C 252.060 189.486,251.796 188.067,251.855 186.492 L 251.905 185.173 247.578 180.389 C 238.189 170.012,236.126 167.749,236.023 167.712 C 235.965 167.692,233.592 169.781,230.750 172.355 M215.395 190.042 C 213.996 190.979,214.232 191.269,215.836 190.582 C 216.584 190.262,217.227 190.000,217.265 190.000 C 217.302 190.000,217.333 189.887,217.333 189.750 C 217.333 189.293,216.276 189.452,215.395 190.042 M253.942 192.138 C 253.691 192.416,253.551 193.167,253.751 193.167 C 253.797 193.167,254.114 193.017,254.456 192.833 C 254.799 192.650,255.286 192.500,255.539 192.500 C 255.793 192.500,256.000 192.440,256.000 192.367 C 256.000 191.792,254.415 191.616,253.942 192.138 M339.606 196.272 C 339.324 198.327,339.486 205.667,339.813 205.667 C 340.417 205.667,340.579 206.103,340.248 206.838 C 339.970 207.455,339.968 207.522,340.225 207.805 C 340.564 208.180,340.580 208.726,340.259 208.992 C 340.073 209.147,340.059 209.280,340.198 209.585 C 340.429 210.092,340.269 210.500,339.839 210.500 C 339.504 210.500,339.500 210.576,339.500 217.250 L 339.500 224.000 353.750 224.000 L 368.000 224.000 368.000 220.578 C 368.000 217.690,367.961 217.141,367.750 217.060 C 367.427 216.936,367.431 216.427,367.759 215.926 C 367.933 215.660,368.002 215.238,367.968 214.640 L 367.917 213.750 367.264 214.458 C 366.348 215.454,365.833 215.372,365.833 214.231 C 365.833 213.528,366.286 212.697,367.189 211.742 C 367.668 211.235,367.941 210.866,367.795 210.923 C 367.318 211.105,367.179 208.868,367.645 208.516 L 368.001 208.248 367.568 207.639 C 367.168 207.077,367.151 206.984,367.346 206.445 C 367.547 205.888,367.531 205.830,367.029 205.257 C 366.425 204.569,366.411 204.514,366.745 204.074 C 367.072 203.641,367.071 203.635,366.516 202.937 C 366.209 202.551,366.064 202.208,366.119 201.998 C 366.166 201.816,366.090 201.491,365.948 201.275 C 365.807 201.059,365.639 200.608,365.577 200.273 C 365.514 199.937,365.397 199.623,365.318 199.574 C 365.238 199.525,365.266 199.336,365.378 199.155 C 365.547 198.885,365.531 198.734,365.292 198.316 C 365.131 198.036,365.000 197.627,365.000 197.407 C 365.000 197.168,364.837 196.901,364.593 196.741 C 364.367 196.593,364.164 196.277,364.135 196.029 L 364.083 195.583 351.898 195.541 L 339.712 195.498 339.606 196.272 M72.582 226.780 L 72.706 230.393 73.629 231.238 C 74.715 232.230,75.500 233.716,75.500 234.780 C 75.500 235.893,74.727 236.377,74.083 235.667 C 73.456 234.973,73.266 235.217,73.080 236.951 C 73.019 237.520,72.863 238.072,72.735 238.180 C 72.540 238.341,72.500 239.511,72.500 245.020 L 72.500 251.667 86.833 251.667 L 101.167 251.667 101.167 244.689 L 101.167 237.711 100.040 237.631 C 97.771 237.469,96.691 236.127,98.162 235.299 C 98.880 234.895,98.800 234.573,97.926 234.353 C 96.116 233.897,95.950 233.134,97.492 232.364 C 98.377 231.921,98.948 231.754,100.792 231.399 L 101.167 231.327 101.167 227.247 L 101.167 223.167 86.813 223.167 L 72.459 223.167 72.582 226.780 " stroke="none" fill="#fbfafa" fill-rule="evenodd"></path><path id="path1" d="M164.321 40.995 C 159.525 41.620,154.983 45.094,153.150 49.540 C 152.080 52.135,152.112 51.799,152.044 61.208 C 151.991 68.373,151.942 69.833,151.752 69.833 C 151.061 69.833,151.000 70.190,151.000 74.236 C 151.000 78.300,151.067 78.667,151.805 78.667 C 151.948 78.667,152.000 79.619,152.000 82.232 L 152.000 85.797 151.577 85.903 C 150.875 86.080,150.833 86.507,150.836 93.553 C 150.838 100.675,150.875 101.028,151.629 101.137 C 152.153 101.212,152.223 106.500,151.700 106.500 C 151.009 106.500,151.000 106.601,151.000 114.167 C 151.000 121.730,151.009 121.833,151.699 121.833 C 151.985 121.833,151.999 124.418,152.040 185.458 L 152.083 249.083 152.449 250.256 C 153.064 252.229,154.236 254.368,155.367 255.583 C 155.622 255.858,155.832 256.133,155.833 256.193 C 155.837 256.820,160.306 259.483,162.337 260.069 C 164.254 260.623,166.573 260.658,201.270 260.662 L 235.957 260.667 236.060 261.308 C 236.116 261.660,236.356 262.386,236.592 262.920 C 236.831 263.461,237.085 264.450,237.166 265.154 C 237.245 265.848,237.479 267.017,237.685 267.750 C 237.914 268.565,238.044 269.445,238.021 270.014 C 237.999 270.526,238.131 271.726,238.312 272.681 C 238.493 273.636,238.688 274.942,238.745 275.583 C 238.802 276.225,238.931 277.027,239.031 277.366 C 239.193 277.911,239.162 278.090,238.764 278.903 C 237.988 280.489,237.999 280.897,238.841 281.674 C 239.612 282.386,239.593 282.601,238.750 282.711 C 237.906 282.821,238.398 285.279,239.502 286.463 C 239.902 286.893,239.427 287.383,238.425 287.571 C 237.409 287.761,236.777 288.919,237.221 289.776 C 238.065 291.410,246.362 292.363,245.934 290.777 C 245.880 290.579,245.753 289.779,245.650 289.000 C 245.548 288.221,245.358 287.225,245.227 286.787 C 244.967 285.914,245.374 283.555,245.930 282.707 C 246.220 282.264,246.118 282.000,245.657 282.000 C 245.238 282.000,245.203 280.854,245.602 280.245 C 245.944 279.722,245.831 279.078,245.053 277.135 C 244.552 275.883,244.483 275.554,244.581 274.876 C 244.807 273.310,244.843 269.183,244.661 265.583 C 244.559 263.567,244.463 261.634,244.446 261.288 L 244.417 260.659 246.135 260.573 C 247.081 260.525,248.185 260.424,248.588 260.349 L 249.323 260.212 249.592 261.148 C 249.740 261.662,250.041 262.274,250.262 262.507 C 250.505 262.764,250.730 263.288,250.834 263.840 C 251.124 265.374,251.829 267.878,252.045 268.139 C 252.196 268.322,252.250 269.615,252.250 273.068 L 252.250 277.750 252.726 278.559 C 252.987 279.005,253.424 279.492,253.697 279.643 C 254.760 280.231,254.743 280.195,254.362 281.056 C 254.172 281.486,253.895 281.884,253.746 281.941 C 253.010 282.224,253.139 283.834,254.001 285.111 C 254.378 285.670,254.430 285.833,254.228 285.833 C 253.184 285.833,252.152 287.167,252.495 288.071 C 253.188 289.893,261.605 290.968,261.288 289.194 C 261.244 288.950,261.120 288.188,261.011 287.500 C 260.903 286.813,260.735 285.950,260.638 285.583 C 260.213 283.975,260.268 281.785,260.757 280.819 C 261.274 279.799,261.284 277.353,260.776 276.161 C 260.146 274.682,259.784 272.748,259.743 270.647 C 259.697 268.248,259.672 268.097,258.900 265.518 C 258.276 263.431,257.811 262.104,256.996 260.083 C 256.201 258.110,256.373 256.008,257.429 254.774 C 258.181 253.895,259.228 251.844,259.697 250.329 L 260.083 249.083 260.126 183.208 L 260.169 117.333 260.642 117.333 C 261.721 117.333,261.667 118.044,261.667 103.971 C 261.667 89.838,261.732 90.667,260.617 90.667 L 260.176 90.667 260.127 71.625 C 260.077 52.622,260.077 52.581,259.715 51.417 C 258.127 46.295,254.568 42.775,249.467 41.281 L 248.250 40.925 206.750 40.900 C 183.925 40.886,164.832 40.929,164.321 40.995 M179.030 48.208 C 179.169 51.707,181.437 54.369,184.814 54.999 C 186.034 55.227,225.292 55.228,226.519 55.000 C 230.218 54.314,232.477 51.369,232.497 47.208 L 232.500 46.500 238.875 46.501 C 242.381 46.502,245.737 46.579,246.333 46.671 C 249.569 47.176,252.405 49.804,253.245 53.077 C 253.472 53.960,253.500 61.376,253.500 120.188 L 253.500 186.307 254.326 186.581 C 256.023 187.144,256.390 188.024,255.965 190.505 C 255.807 191.427,255.807 191.752,255.965 192.005 C 256.325 192.582,256.211 192.750,255.458 192.750 C 254.985 192.750,254.570 192.879,254.208 193.137 L 253.667 193.523 253.667 192.734 C 253.667 192.300,253.622 191.989,253.567 192.044 C 253.512 192.099,253.471 193.387,253.477 194.905 C 253.486 197.550,253.473 197.667,253.157 197.667 C 252.321 197.667,250.354 198.397,250.268 198.739 C 249.981 199.881,249.783 199.846,248.301 198.393 C 246.628 196.754,246.362 196.606,245.083 196.609 C 244.025 196.611,241.847 197.455,241.355 198.055 C 240.922 198.582,237.414 198.297,236.045 197.624 C 235.097 197.158,234.730 197.344,233.819 198.752 L 233.102 199.862 231.176 199.744 C 229.610 199.648,229.125 199.554,228.583 199.242 C 228.217 199.031,227.617 198.803,227.250 198.736 C 226.883 198.669,226.127 198.364,225.569 198.057 C 225.012 197.751,224.342 197.500,224.080 197.500 C 223.461 197.500,221.510 195.522,219.417 192.771 C 218.592 191.686,217.795 190.645,217.646 190.456 L 217.374 190.113 215.987 190.672 C 213.218 191.788,213.173 192.162,215.424 195.372 C 216.191 196.466,217.140 198.012,217.534 198.806 C 217.928 199.600,218.325 200.306,218.417 200.375 C 220.056 201.601,228.070 205.779,230.000 206.413 C 230.779 206.669,231.433 206.891,231.452 206.905 C 231.471 206.920,231.340 207.747,231.160 208.744 C 230.980 209.741,230.833 211.102,230.833 211.770 C 230.833 214.095,230.094 218.857,229.406 220.964 C 229.142 221.773,229.000 222.596,228.999 223.313 C 228.999 224.427,228.736 226.249,228.260 228.445 C 228.118 229.103,228.003 230.228,228.006 230.945 C 228.009 231.663,227.990 232.579,227.964 232.980 C 227.893 234.077,228.209 234.189,229.533 233.537 C 230.484 233.069,230.814 233.001,232.632 232.898 L 234.667 232.783 234.667 236.867 C 234.667 241.577,234.812 243.705,235.512 249.250 C 235.790 251.450,236.061 253.606,236.115 254.042 L 236.213 254.833 201.256 254.833 C 169.837 254.833,166.194 254.806,165.274 254.568 C 162.178 253.767,159.729 251.414,158.972 248.514 C 158.619 247.159,158.499 54.992,158.850 53.300 C 159.506 50.145,162.555 47.188,165.667 46.687 C 166.171 46.605,169.369 46.530,172.773 46.519 L 178.962 46.500 179.030 48.208 M215.639 47.402 C 216.642 47.921,216.864 49.352,216.070 50.180 C 214.909 51.392,213.000 50.625,213.000 48.946 C 213.000 47.629,214.444 46.784,215.639 47.402 M210.346 47.821 C 211.062 48.536,210.900 50.080,210.076 50.396 C 209.927 50.453,206.788 50.500,203.099 50.500 L 196.391 50.500 196.051 50.125 C 195.595 49.623,195.464 48.985,195.686 48.349 C 196.033 47.356,196.094 47.347,203.304 47.340 L 209.859 47.333 210.346 47.821 M335.398 171.770 C 333.588 172.411,332.377 174.197,332.158 176.548 C 332.079 177.393,331.965 178.252,331.905 178.458 C 331.763 178.941,332.228 179.667,332.679 179.667 C 333.742 179.667,334.333 178.926,334.333 177.594 C 334.333 176.157,334.903 175.721,336.060 176.272 C 336.795 176.623,337.389 176.475,338.018 175.787 C 338.602 175.148,338.891 175.251,339.446 176.296 C 339.646 176.672,340.109 177.250,340.476 177.581 C 340.995 178.051,341.184 178.375,341.328 179.048 C 341.661 180.600,342.689 181.349,342.920 180.208 C 343.235 178.651,343.662 178.446,344.559 179.424 L 345.121 180.038 345.237 179.576 C 345.321 179.239,345.237 178.890,344.927 178.291 C 344.555 177.576,344.500 177.260,344.499 175.860 C 344.498 173.486,344.229 173.124,342.333 172.951 C 341.921 172.914,341.054 172.650,340.407 172.366 C 338.378 171.475,336.769 171.283,335.398 171.770 M101.755 182.105 C 99.611 184.506,99.241 184.833,98.673 184.833 C 98.165 184.833,98.134 184.866,98.201 185.325 C 98.266 185.771,98.225 185.821,97.762 185.867 C 97.312 185.911,97.256 185.972,97.303 186.372 C 97.332 186.622,97.230 187.039,97.077 187.300 C 96.801 187.766,96.810 187.798,97.611 189.421 C 98.881 191.994,99.463 192.179,101.373 190.613 C 103.766 188.652,105.731 188.969,108.554 191.774 C 110.247 193.455,111.013 193.604,111.417 192.332 C 111.578 191.824,111.857 191.926,112.731 192.814 L 113.533 193.628 113.354 194.522 C 112.939 196.596,112.666 198.471,112.665 199.250 C 112.664 201.102,112.017 202.054,111.248 201.332 C 110.438 200.571,109.675 201.510,109.924 202.963 C 110.100 203.994,110.114 204.976,109.958 205.529 C 109.861 205.877,109.925 206.083,110.250 206.470 C 110.692 206.995,110.795 207.782,110.494 208.344 C 110.330 208.651,110.389 208.667,111.744 208.667 C 113.056 208.667,113.167 208.693,113.167 209.000 C 113.167 209.183,113.230 209.333,113.307 209.333 C 113.689 209.333,115.425 208.621,116.908 207.856 C 118.810 206.874,119.344 206.808,121.066 207.340 C 122.155 207.677,122.167 207.686,122.189 208.298 C 122.270 210.523,121.827 212.002,120.496 213.962 L 119.507 215.417 119.879 215.706 C 121.055 216.621,123.332 217.546,125.703 218.070 C 126.111 218.160,126.141 218.213,125.995 218.596 C 125.889 218.875,125.891 219.130,126.000 219.333 C 126.092 219.505,126.167 219.685,126.167 219.734 C 126.167 219.783,124.980 221.307,123.530 223.120 C 115.794 232.792,115.574 233.275,117.229 237.033 C 119.236 241.593,120.648 253.347,119.355 254.726 C 119.066 255.034,118.979 255.283,119.033 255.650 C 119.255 257.163,116.222 258.897,113.333 258.909 C 111.060 258.918,110.770 259.178,111.949 260.150 C 113.476 261.410,115.487 261.721,121.571 261.641 L 125.968 261.583 125.044 262.667 C 123.266 264.750,121.875 265.616,120.052 265.771 C 118.532 265.901,118.333 265.968,118.333 266.352 C 118.333 266.885,118.941 267.618,119.803 268.124 L 120.583 268.583 123.833 268.563 C 125.897 268.550,127.730 268.443,128.855 268.271 C 129.829 268.122,131.343 268.000,132.220 268.000 C 134.128 268.000,134.092 268.037,134.025 266.140 C 133.978 264.804,134.000 264.689,134.320 264.587 C 135.090 264.343,134.896 262.796,133.962 261.732 L 133.440 261.137 133.369 257.694 C 133.330 255.800,133.308 253.438,133.319 252.447 C 133.335 251.064,133.261 250.389,133.003 249.554 C 132.792 248.869,132.667 247.998,132.667 247.207 C 132.667 246.010,132.466 244.679,131.893 242.083 C 131.511 240.349,131.525 240.383,130.821 239.569 C 130.084 238.717,130.021 238.353,130.497 237.702 C 130.678 237.453,130.844 237.006,130.865 236.708 C 130.893 236.321,130.986 236.167,131.192 236.167 C 131.351 236.167,131.524 236.096,131.577 236.010 C 131.630 235.924,132.066 235.628,132.545 235.353 C 134.684 234.123,136.651 231.955,137.705 229.667 C 138.063 228.887,138.447 228.065,138.557 227.839 C 138.667 227.612,139.205 227.176,139.753 226.869 C 142.666 225.237,144.232 222.480,144.422 218.652 C 144.558 215.900,144.521 215.759,143.459 214.990 C 143.080 214.715,142.744 214.323,142.714 214.120 C 142.684 213.916,142.432 213.433,142.155 213.045 C 141.878 212.657,141.389 211.765,141.068 211.062 C 139.543 207.715,136.086 204.286,132.626 202.690 C 131.861 202.337,131.351 201.940,130.708 201.199 C 130.136 200.538,129.346 199.895,128.425 199.339 C 127.651 198.871,126.701 198.224,126.314 197.900 C 125.403 197.139,124.950 196.916,123.834 196.680 C 123.309 196.569,122.489 196.206,121.912 195.830 C 120.665 195.018,120.291 194.894,118.437 194.679 C 117.202 194.535,116.752 194.394,115.710 193.822 C 114.990 193.427,114.330 193.172,114.148 193.220 C 113.900 193.285,113.831 193.209,113.821 192.859 C 113.758 190.488,113.549 189.491,112.927 188.588 C 112.299 187.675,112.012 186.847,112.003 185.917 C 111.986 184.159,111.444 183.538,109.663 183.233 C 108.635 183.056,107.727 182.742,106.330 182.078 C 103.604 180.784,102.932 180.788,101.755 182.105 M347.321 184.153 C 346.581 186.134,346.556 186.406,347.053 187.058 C 347.473 187.609,347.500 187.750,347.500 189.418 C 347.500 191.125,347.528 191.264,348.250 193.110 C 348.662 194.165,349.000 195.135,349.000 195.264 C 349.000 195.463,349.984 195.500,355.333 195.500 C 358.817 195.500,361.667 195.438,361.667 195.361 C 361.667 194.937,362.428 194.830,363.077 195.162 C 363.440 195.348,363.834 195.500,363.952 195.500 C 364.070 195.500,364.167 195.686,364.167 195.913 C 364.167 196.169,364.325 196.429,364.583 196.599 C 364.813 196.749,365.000 197.016,365.000 197.192 C 365.000 197.369,365.140 197.792,365.312 198.132 C 365.501 198.508,365.577 198.878,365.506 199.076 C 365.388 199.402,365.511 199.939,365.938 200.964 C 366.064 201.265,366.167 201.758,366.167 202.060 C 366.167 202.430,366.303 202.736,366.583 203.000 C 367.012 203.403,367.127 203.902,366.833 204.083 C 366.536 204.267,366.657 204.766,367.098 205.179 C 367.485 205.541,367.519 205.668,367.425 206.382 C 367.339 207.036,367.381 207.259,367.660 207.613 C 368.020 208.071,368.107 208.500,367.839 208.500 C 367.473 208.500,367.332 209.144,367.513 209.990 L 367.694 210.833 368.472 210.835 C 368.900 210.835,369.874 210.985,370.636 211.168 C 371.398 211.351,372.129 211.500,372.261 211.500 C 372.594 211.500,372.580 209.519,372.238 208.417 C 372.016 207.701,372.007 207.278,372.171 205.417 C 372.278 204.208,372.338 201.334,372.306 198.917 L 372.250 194.583 371.602 193.285 C 370.991 192.061,370.912 191.975,370.230 191.793 C 369.782 191.673,369.229 191.332,368.774 190.897 C 367.839 190.000,367.072 189.615,364.500 188.745 C 363.354 188.358,362.079 187.925,361.667 187.782 C 361.254 187.640,360.710 187.479,360.458 187.425 C 360.101 187.349,360.000 187.231,360.000 186.894 C 360.000 185.506,355.274 183.363,353.904 184.131 C 353.662 184.266,353.495 184.218,353.126 183.908 C 352.553 183.426,352.124 183.351,349.621 183.294 L 347.659 183.250 347.321 184.153 M243.503 183.759 C 243.000 183.899,242.038 184.310,241.365 184.673 C 240.001 185.409,239.747 185.454,239.186 185.061 C 238.602 184.653,238.488 184.910,238.424 186.780 C 238.414 187.072,238.283 187.447,238.132 187.614 C 237.609 188.194,237.603 188.732,238.112 189.337 C 238.444 189.731,238.604 190.138,238.665 190.738 L 238.750 191.583 239.500 191.637 C 240.633 191.717,241.133 192.332,241.762 194.417 C 242.236 195.989,242.254 196.000,244.416 196.000 C 247.440 196.000,248.299 195.610,248.758 194.030 C 248.907 193.519,249.238 192.684,249.493 192.175 C 250.750 189.675,250.613 187.115,249.167 186.042 C 248.754 185.736,247.988 185.061,247.464 184.542 C 246.366 183.456,245.329 183.251,243.503 183.759 M64.417 185.567 C 62.499 186.175,61.983 186.666,61.596 188.250 C 60.804 191.501,59.597 193.350,57.399 194.677 C 55.070 196.084,54.930 196.636,56.625 197.725 C 59.235 199.403,60.589 201.418,60.474 203.453 C 60.410 204.593,60.387 204.648,59.167 206.598 C 58.715 207.319,59.095 207.600,61.292 208.165 C 61.953 208.335,62.000 208.385,62.000 208.923 C 62.000 209.241,62.075 209.500,62.167 209.500 C 62.258 209.500,62.333 209.641,62.333 209.814 C 62.333 211.225,67.188 212.815,67.680 211.565 C 67.816 211.221,67.822 210.846,67.700 210.250 C 67.558 209.554,67.576 209.351,67.807 209.021 C 68.602 207.882,68.665 207.722,68.664 206.833 C 68.663 205.768,68.300 204.900,67.024 202.917 C 65.481 200.518,65.320 199.269,66.441 198.387 C 68.024 197.142,68.486 196.539,68.875 195.219 C 69.283 193.829,69.849 193.091,70.624 192.934 C 70.877 192.883,71.608 192.755,72.250 192.649 C 75.004 192.193,75.979 189.933,73.948 188.712 C 73.472 188.427,72.724 187.816,72.284 187.356 C 70.770 185.768,66.700 184.843,64.417 185.567 M215.583 192.678 C 215.583 192.807,215.452 192.937,215.292 192.968 C 215.004 193.024,214.886 192.670,215.115 192.441 C 215.289 192.266,215.583 192.415,215.583 192.678 M338.295 192.738 C 338.202 193.342,338.475 194.471,338.953 195.451 C 339.369 196.305,339.422 196.356,339.469 195.951 L 339.522 195.500 341.275 195.500 C 343.249 195.500,343.701 195.161,341.792 195.112 C 340.332 195.074,339.882 194.706,340.143 193.760 C 340.383 192.891,340.272 192.742,339.250 192.556 C 338.404 192.403,338.345 192.414,338.295 192.738 M216.072 193.519 C 215.930 193.749,215.500 193.693,215.500 193.444 C 215.500 193.322,215.549 193.173,215.610 193.113 C 215.760 192.962,216.185 193.335,216.072 193.519 M216.471 194.055 C 216.502 194.216,216.418 194.333,216.272 194.333 C 215.962 194.333,215.776 194.062,215.922 193.825 C 216.073 193.581,216.406 193.721,216.471 194.055 M217.000 194.750 C 217.000 194.889,216.852 195.000,216.667 195.000 C 216.481 195.000,216.333 194.889,216.333 194.750 C 216.333 194.611,216.481 194.500,216.667 194.500 C 216.852 194.500,217.000 194.611,217.000 194.750 M258.261 195.375 C 258.240 196.460,257.936 196.391,257.892 195.292 C 257.870 194.752,257.927 194.500,258.069 194.500 C 258.211 194.500,258.272 194.777,258.261 195.375 M33.417 209.145 C 32.259 209.675,30.744 211.303,30.053 212.758 C 28.648 215.716,29.252 218.775,31.944 222.333 C 32.257 222.746,33.029 223.833,33.661 224.750 C 36.914 229.466,40.009 233.760,40.729 234.556 C 41.220 235.099,41.294 235.282,41.215 235.765 C 41.142 236.217,41.179 236.333,41.395 236.333 C 41.681 236.333,41.752 236.526,41.542 236.736 C 41.473 236.805,41.413 237.699,41.408 238.722 C 41.400 240.235,41.314 240.870,40.949 242.116 C 40.381 244.056,40.387 244.681,41.011 247.750 C 41.290 249.125,41.564 250.730,41.619 251.316 C 41.697 252.144,41.819 252.497,42.168 252.899 C 42.715 253.531,42.778 255.177,42.268 255.550 C 42.017 255.733,42.009 255.831,42.200 256.392 L 42.417 257.027 44.000 257.077 C 45.882 257.137,46.811 257.362,47.475 257.921 C 48.313 258.626,48.565 258.493,48.438 257.414 L 48.330 256.496 48.980 256.599 C 49.338 256.657,49.764 256.629,49.928 256.537 C 50.294 256.332,51.158 257.179,51.760 258.333 C 51.975 258.746,52.154 258.971,52.158 258.833 C 52.168 258.489,51.594 257.581,50.942 256.909 C 50.501 256.454,50.411 256.244,50.464 255.790 C 50.506 255.424,50.440 255.158,50.270 255.016 C 50.077 254.856,50.036 254.620,50.108 254.089 C 50.171 253.629,50.137 253.335,50.012 253.257 C 49.868 253.168,49.866 253.078,50.003 252.913 C 50.142 252.745,50.121 252.585,49.918 252.275 C 49.693 251.931,49.682 251.804,49.858 251.522 C 50.034 251.241,50.021 251.082,49.786 250.588 C 48.831 248.585,49.227 240.202,50.421 237.156 C 51.514 234.366,51.291 232.933,49.148 228.988 C 48.360 227.537,47.525 225.692,47.073 224.404 C 45.873 220.985,44.488 218.308,44.075 218.610 C 43.498 219.033,42.828 218.823,42.263 218.043 C 41.878 217.512,41.407 217.167,40.370 216.655 C 37.787 215.380,35.395 212.300,35.067 209.826 C 34.999 209.319,34.874 209.000,34.742 209.000 C 34.624 209.000,34.427 208.964,34.305 208.920 C 34.183 208.875,33.783 208.977,33.417 209.145 M368.000 214.646 C 368.000 215.478,368.195 215.767,368.399 215.236 C 368.576 214.775,368.508 214.214,368.250 214.000 C 368.033 213.820,368.000 213.906,368.000 214.646 M369.833 217.191 C 369.604 217.284,369.098 217.318,368.708 217.267 L 368.000 217.173 368.000 220.585 L 368.000 223.997 359.241 224.040 L 350.482 224.083 350.430 225.250 C 350.398 225.970,350.176 227.052,349.852 228.075 C 349.311 229.778,348.667 232.967,348.667 233.938 C 348.667 234.259,348.381 235.020,347.974 235.784 C 347.068 237.485,346.967 238.779,347.498 241.913 C 347.700 243.103,347.825 244.321,347.776 244.621 C 347.713 245.008,347.752 245.167,347.909 245.167 C 348.214 245.167,348.333 245.547,348.333 246.514 C 348.333 247.117,348.423 247.423,348.673 247.673 C 348.948 247.948,349.033 248.311,349.114 249.548 C 349.211 251.046,349.869 254.434,351.398 261.313 C 352.245 265.121,352.130 264.819,352.771 264.932 C 353.035 264.979,353.620 265.126,354.072 265.258 C 355.206 265.592,357.502 265.569,358.631 265.213 C 359.839 264.832,360.001 264.486,359.611 263.109 C 358.496 259.161,358.460 258.969,358.564 257.445 C 358.658 256.078,358.635 255.922,358.247 255.259 C 357.877 254.628,357.833 254.383,357.871 253.148 C 357.907 251.962,357.859 251.661,357.555 251.167 C 357.024 250.304,356.633 248.785,356.481 247.000 C 356.301 244.893,356.299 244.883,355.923 244.608 C 355.649 244.408,355.631 244.327,355.811 244.110 C 355.930 243.967,356.004 243.588,355.977 243.267 C 355.949 242.947,355.981 242.631,356.047 242.564 C 356.289 242.322,356.157 241.701,355.816 241.474 C 355.466 241.242,355.466 241.240,356.066 240.149 C 356.396 239.547,356.667 238.906,356.667 238.724 C 356.667 238.542,357.012 237.685,357.434 236.821 C 357.856 235.957,358.685 233.903,359.275 232.256 C 359.865 230.610,360.378 229.233,360.413 229.198 C 360.827 228.784,362.506 231.163,362.767 232.531 C 362.957 233.530,363.809 235.889,364.652 237.750 C 364.818 238.117,365.048 238.829,365.164 239.333 C 365.279 239.838,365.589 240.750,365.853 241.361 C 366.117 241.972,366.333 242.602,366.333 242.760 C 366.333 243.464,367.095 244.563,367.972 245.125 C 368.461 245.438,369.002 245.933,369.173 246.224 C 369.345 246.515,369.714 246.888,369.993 247.053 C 370.357 247.268,370.501 247.479,370.502 247.801 C 370.504 248.195,370.680 248.342,371.936 249.000 C 373.450 249.792,374.314 250.600,375.400 252.236 C 375.729 252.732,376.332 253.528,376.738 254.004 C 377.145 254.481,377.752 255.406,378.088 256.060 C 379.036 257.907,379.301 258.281,379.922 258.648 C 380.461 258.966,380.500 259.046,380.500 259.835 C 380.500 260.511,380.582 260.764,380.908 261.090 C 381.217 261.399,381.328 261.709,381.366 262.374 C 381.416 263.238,381.424 263.249,381.917 263.201 C 384.484 262.951,388.058 260.837,388.275 259.440 C 388.347 258.972,388.273 258.855,387.567 258.333 C 386.766 257.741,386.434 257.225,385.479 255.083 C 384.991 253.990,384.623 253.389,382.623 250.426 C 382.186 249.779,381.516 248.691,381.134 248.008 C 379.631 245.320,378.076 243.376,376.833 242.630 C 375.799 242.010,375.330 241.457,375.066 240.548 C 374.926 240.066,374.685 239.600,374.530 239.514 C 374.306 239.388,374.248 239.095,374.241 238.053 C 374.233 236.883,374.168 236.626,373.606 235.536 C 372.913 234.190,372.669 233.050,372.668 231.146 C 372.667 230.222,372.572 229.661,372.319 229.090 C 372.058 228.500,371.932 227.714,371.813 225.944 C 371.726 224.645,371.548 223.021,371.418 222.333 C 371.289 221.646,371.054 220.165,370.898 219.042 C 370.605 216.939,370.576 216.888,369.833 217.191 M245.922 248.750 C 246.643 250.637,247.835 254.220,247.765 254.290 C 247.586 254.470,245.814 254.830,245.099 254.831 L 244.282 254.833 244.379 252.091 C 244.459 249.839,244.543 249.167,244.847 248.333 C 245.274 247.162,245.322 247.181,245.922 248.750 M390.029 262.792 C 389.947 262.952,389.830 263.288,389.771 263.539 C 389.711 263.789,389.316 264.383,388.894 264.858 C 388.440 265.370,387.758 266.490,387.224 267.602 C 386.220 269.689,385.160 270.865,384.026 271.149 C 382.705 271.479,381.889 271.697,381.274 271.883 C 380.690 272.061,380.559 272.037,379.812 271.620 C 378.373 270.817,377.704 271.271,378.901 272.240 L 379.531 272.750 381.726 272.750 C 385.018 272.750,386.307 272.032,387.688 269.431 C 387.984 268.873,388.793 267.796,389.486 267.037 C 391.002 265.377,391.221 264.990,391.237 263.944 C 391.254 262.865,390.406 262.056,390.029 262.792 M359.417 269.427 C 358.867 269.551,357.649 269.729,356.712 269.822 C 355.517 269.940,354.619 270.143,353.712 270.498 C 352.537 270.958,351.667 271.163,347.650 271.926 C 345.479 272.338,344.840 272.164,344.570 271.088 C 344.445 270.592,344.239 270.540,344.125 270.976 C 343.578 273.064,348.613 273.872,352.441 272.310 C 353.735 271.782,353.785 271.775,356.750 271.749 C 360.818 271.713,361.393 271.428,361.048 269.619 C 360.950 269.108,360.869 269.099,359.417 269.427 M245.212 272.000 C 245.212 272.412,245.245 272.581,245.284 272.375 C 245.324 272.169,245.324 271.831,245.284 271.625 C 245.245 271.419,245.212 271.587,245.212 272.000 " stroke="none" fill="#43405f" fill-rule="evenodd"></path><path id="path2" d="M76.333 0.169 C 59.661 1.854,48.247 10.378,43.419 24.750 C 41.107 31.630,39.744 38.243,38.712 47.583 C 38.424 50.194,38.578 56.606,38.983 58.833 C 40.190 65.467,41.774 68.760,47.229 75.977 C 52.444 82.875,53.913 85.183,55.592 89.112 C 58.817 96.662,59.666 106.033,57.924 114.835 C 56.912 119.947,54.138 128.651,52.682 131.281 C 52.590 131.447,51.840 132.971,51.016 134.667 C 49.375 138.040,48.953 138.819,46.951 142.167 C 45.316 144.902,43.910 147.061,41.921 149.892 C 41.094 151.070,40.306 152.195,40.172 152.392 C 40.037 152.589,39.544 153.275,39.077 153.917 C 38.609 154.558,37.961 155.458,37.636 155.917 C 37.312 156.375,36.160 157.987,35.078 159.500 C 33.086 162.283,32.677 162.878,30.966 165.474 C 20.168 181.863,17.479 195.088,22.541 206.917 C 23.739 209.719,26.681 214.036,28.709 215.970 L 29.289 216.523 29.365 215.207 C 29.532 212.333,33.059 208.026,34.511 208.924 C 34.605 208.981,34.772 208.957,34.882 208.870 C 34.993 208.782,35.538 208.672,36.094 208.624 C 36.700 208.572,37.442 208.366,37.948 208.110 C 38.413 207.874,39.158 207.594,39.605 207.487 C 40.725 207.218,41.607 206.678,42.559 205.680 C 43.182 205.026,43.520 204.807,44.036 204.725 C 44.594 204.636,44.743 204.526,44.940 204.054 C 45.101 203.668,45.371 203.408,45.796 203.228 C 46.945 202.743,47.217 202.584,47.332 202.333 C 47.859 201.182,47.955 201.074,48.664 200.833 C 49.115 200.680,49.806 200.201,50.447 199.596 C 51.023 199.053,51.739 198.515,52.039 198.400 C 52.338 198.285,53.235 197.942,54.032 197.637 C 55.344 197.136,55.473 197.048,55.389 196.709 C 55.271 196.225,56.102 195.418,57.908 194.264 C 59.784 193.064,60.394 192.010,61.772 187.583 C 62.677 184.676,70.247 184.557,72.428 187.416 C 72.687 187.756,73.298 188.259,73.786 188.535 C 75.794 189.668,75.344 191.970,73.000 192.550 C 72.595 192.651,72.583 192.695,72.582 194.118 C 72.580 197.082,70.545 199.361,67.670 199.622 C 65.613 199.809,65.536 200.559,67.298 203.231 C 69.070 205.915,69.241 207.400,67.956 208.924 C 67.566 209.387,67.544 209.490,67.706 210.097 C 67.804 210.465,67.830 211.051,67.763 211.404 L 67.643 212.046 66.258 211.959 L 64.874 211.873 65.531 213.561 C 66.666 216.479,68.103 219.271,70.991 224.167 L 72.417 226.583 72.464 224.875 L 72.512 223.167 86.835 223.167 L 101.158 223.167 101.204 225.753 L 101.250 228.340 101.869 227.830 C 102.209 227.549,103.421 225.954,104.563 224.285 C 105.704 222.616,107.359 220.200,108.241 218.917 C 110.746 215.269,111.224 214.005,110.647 212.553 C 110.409 211.953,110.412 209.895,110.653 209.276 C 110.814 208.860,110.796 208.792,110.505 208.716 C 110.203 208.637,110.195 208.599,110.420 208.278 C 110.780 207.764,110.723 207.182,110.244 206.492 C 109.849 205.922,109.835 205.832,110.023 205.128 C 110.191 204.500,110.180 204.218,109.956 203.431 C 109.658 202.380,109.786 201.638,110.352 201.140 C 110.785 200.759,110.834 200.831,109.205 199.450 L 107.744 198.210 106.154 198.140 C 102.909 197.998,100.555 195.835,100.227 192.694 C 100.124 191.713,100.099 191.667,99.665 191.667 C 98.478 191.667,96.531 188.338,97.064 187.221 C 97.222 186.889,97.293 186.479,97.233 186.242 C 97.141 185.874,97.182 185.833,97.649 185.833 C 98.113 185.833,98.167 185.782,98.167 185.333 C 98.167 184.926,98.236 184.833,98.542 184.833 C 99.194 184.832,99.934 184.234,100.971 182.871 C 102.595 180.738,103.369 180.623,106.447 182.059 C 107.605 182.599,108.863 183.056,109.500 183.168 C 111.446 183.510,111.851 183.953,112.084 186.000 C 112.238 187.346,112.367 187.693,113.125 188.798 C 113.697 189.630,113.735 189.770,113.824 191.355 L 113.917 193.032 114.520 193.239 C 114.851 193.353,115.376 193.601,115.686 193.790 C 116.465 194.266,117.907 194.667,118.843 194.667 C 119.854 194.667,120.677 194.965,121.974 195.803 C 122.614 196.217,123.391 196.556,123.969 196.673 C 124.915 196.864,126.190 197.548,126.744 198.160 C 126.905 198.338,127.716 198.881,128.545 199.367 C 129.650 200.013,130.275 200.518,130.879 201.250 C 131.501 202.003,131.930 202.344,132.615 202.630 C 135.733 203.932,139.187 207.288,140.918 210.699 C 141.445 211.735,142.043 212.808,142.247 213.083 C 142.451 213.358,142.678 213.770,142.750 213.999 C 142.822 214.227,143.257 214.766,143.715 215.197 L 144.549 215.979 144.462 218.554 C 144.331 222.443,142.534 225.546,139.529 227.069 C 138.788 227.444,138.654 227.598,138.344 228.427 C 137.275 231.283,135.566 233.412,132.977 235.111 C 132.302 235.554,131.712 235.960,131.667 236.012 C 131.621 236.065,131.452 236.156,131.292 236.215 C 131.131 236.274,130.999 236.456,130.998 236.620 C 130.997 236.783,130.809 237.243,130.581 237.642 C 130.056 238.561,130.061 238.670,130.659 239.243 C 131.447 239.998,132.321 242.679,132.331 244.372 C 132.334 244.980,132.022 244.943,139.833 245.255 C 143.546 245.403,147.802 245.575,149.292 245.637 L 152.000 245.750 152.000 183.875 C 152.000 128.986,151.972 122.000,151.750 122.000 C 150.844 122.000,150.833 121.909,150.833 114.239 C 150.833 106.825,150.853 106.615,151.579 106.433 L 152.000 106.327 152.000 103.747 L 152.000 101.167 151.589 101.167 C 150.859 101.167,150.833 100.901,150.833 93.453 C 150.833 85.814,150.831 85.833,151.721 85.833 C 151.973 85.833,152.000 85.487,152.000 82.250 C 152.000 78.813,151.987 78.667,151.676 78.667 C 150.928 78.667,150.833 78.173,150.833 74.250 C 150.833 70.337,150.928 69.833,151.667 69.833 C 151.970 69.833,151.983 69.527,152.037 61.042 C 152.092 52.365,152.098 52.235,152.480 51.083 C 154.176 45.969,157.679 42.651,162.917 41.195 C 164.507 40.753,247.704 40.768,249.333 41.211 C 254.432 42.596,257.975 45.972,259.691 51.083 L 260.083 52.250 260.130 71.458 L 260.176 90.667 260.721 90.667 C 261.715 90.667,261.667 89.981,261.667 104.000 C 261.667 118.026,261.716 117.333,260.717 117.333 L 260.167 117.333 260.167 181.358 L 260.167 245.383 263.375 245.277 C 265.140 245.218,269.958 245.091,274.083 244.993 C 278.208 244.896,281.898 244.779,282.282 244.733 L 282.981 244.649 282.681 243.949 C 282.267 242.985,281.699 240.493,281.566 239.061 L 281.456 237.872 283.020 237.760 C 287.970 237.406,290.396 236.887,293.167 235.586 C 298.723 232.979,306.086 232.224,307.017 234.167 C 307.083 234.304,307.335 234.829,307.577 235.333 C 307.819 235.838,308.844 237.412,309.855 238.833 C 310.865 240.254,312.005 241.920,312.387 242.534 C 312.931 243.409,313.155 243.638,313.416 243.586 C 313.600 243.549,314.762 243.474,316.000 243.419 C 321.671 243.167,327.489 242.687,335.417 241.817 C 340.560 241.253,342.442 241.011,346.542 240.385 L 347.167 240.289 347.167 238.920 C 347.167 237.438,347.334 236.771,347.956 235.777 C 348.232 235.335,348.455 234.538,348.677 233.194 C 349.072 230.804,349.240 230.039,349.833 227.917 C 350.462 225.669,350.536 225.152,350.319 224.530 L 350.134 224.000 344.817 224.000 L 339.500 224.000 339.500 217.250 C 339.500 211.433,339.466 210.500,339.256 210.500 C 338.965 210.500,338.679 210.007,338.790 209.696 C 338.834 209.575,338.704 209.300,338.502 209.085 C 338.219 208.784,338.159 208.579,338.244 208.196 C 338.307 207.906,338.279 207.653,338.176 207.589 C 337.635 207.255,338.091 206.157,338.903 205.839 L 339.500 205.604 339.500 201.153 L 339.500 196.701 338.887 195.410 C 338.499 194.594,338.246 193.787,338.199 193.217 L 338.124 192.316 339.020 192.430 C 340.252 192.587,340.352 192.697,340.228 193.753 C 340.098 194.863,340.395 195.078,342.042 195.070 C 342.859 195.066,343.167 195.124,343.167 195.282 C 343.167 195.453,343.794 195.500,346.083 195.500 C 348.021 195.500,349.000 195.441,349.000 195.324 C 349.000 195.227,348.727 194.496,348.394 193.699 C 348.060 192.902,347.618 191.575,347.410 190.750 C 347.202 189.925,346.841 188.817,346.608 188.289 L 346.183 187.328 346.813 185.455 C 347.586 183.160,347.814 182.698,348.012 183.019 C 348.117 183.189,348.724 183.272,350.314 183.333 C 352.236 183.407,352.531 183.459,352.994 183.802 C 353.453 184.142,353.582 184.165,354.082 184.000 C 355.723 183.459,360.000 185.500,360.000 186.825 C 360.000 187.242,360.072 187.302,360.690 187.401 C 361.069 187.462,361.767 187.688,362.240 187.905 C 362.714 188.122,363.884 188.540,364.842 188.835 C 367.018 189.505,367.674 189.837,368.682 190.781 C 369.159 191.227,369.774 191.614,370.200 191.736 C 370.861 191.926,370.973 192.045,371.633 193.263 L 372.349 194.583 372.279 201.417 C 372.241 205.175,372.274 208.424,372.354 208.636 C 372.433 208.849,372.529 209.749,372.568 210.636 C 372.606 211.524,372.693 212.940,372.760 213.784 C 372.907 215.637,372.730 216.020,371.486 216.537 C 371.036 216.724,370.667 216.943,370.667 217.024 C 370.667 217.532,371.377 222.092,371.511 222.445 C 371.601 222.682,371.751 224.048,371.845 225.480 C 371.977 227.501,372.109 228.356,372.433 229.304 C 372.792 230.351,372.835 230.690,372.736 231.694 L 372.621 232.864 373.343 232.495 C 381.262 228.455,387.139 220.324,388.252 211.866 C 389.660 201.171,385.363 192.739,374.333 184.559 C 373.023 183.587,368.838 180.891,367.036 179.857 C 363.617 177.896,362.214 177.106,360.333 176.082 C 359.188 175.458,358.025 174.822,357.750 174.668 C 357.475 174.514,356.221 173.814,354.963 173.111 C 340.901 165.255,334.137 158.680,331.906 150.696 C 331.274 148.433,331.148 147.599,331.054 145.059 C 330.628 133.548,335.787 123.726,353.583 102.166 C 367.932 84.783,373.406 76.100,376.260 66.198 C 379.151 56.167,378.405 47.578,373.781 37.670 C 369.359 28.196,360.276 19.891,348.667 14.707 C 339.712 10.708,326.253 9.128,315.833 10.853 C 306.461 12.405,299.192 15.921,293.000 21.899 C 284.066 30.523,272.517 35.959,257.000 38.843 C 255.946 39.039,254.933 39.227,254.750 39.261 C 245.954 40.886,230.331 40.874,219.833 39.234 C 207.615 37.326,197.106 34.641,183.333 29.908 C 178.941 28.399,176.309 27.465,174.667 26.833 C 173.979 26.568,172.104 25.857,170.500 25.252 C 168.896 24.647,166.646 23.781,165.500 23.329 C 164.354 22.877,161.204 21.641,158.500 20.582 C 155.796 19.524,153.325 18.541,153.009 18.399 C 152.693 18.257,151.343 17.725,150.009 17.216 C 148.675 16.708,146.758 15.972,145.750 15.581 C 143.738 14.802,136.765 12.190,134.000 11.179 C 119.405 5.844,104.669 2.043,92.500 0.475 C 89.603 0.102,78.986 -0.100,76.333 0.169 M263.333 21.610 C 256.781 22.241,252.760 25.679,253.661 29.879 C 253.756 30.321,253.833 30.946,253.833 31.266 C 253.833 32.329,254.813 33.571,255.182 32.976 C 255.285 32.810,255.776 32.750,257.036 32.749 L 258.750 32.747 259.969 32.008 C 262.323 30.580,264.300 27.855,265.078 24.965 C 265.244 24.350,265.506 23.711,265.661 23.544 C 266.144 23.026,266.550 22.328,266.436 22.213 C 266.214 21.992,262.390 23.652,262.439 23.948 C 262.451 24.022,262.515 24.271,262.580 24.500 L 262.698 24.917 262.404 24.500 C 262.243 24.271,262.090 24.057,262.065 24.024 C 262.040 23.991,261.608 24.200,261.105 24.488 L 260.190 25.011 260.615 25.938 C 260.941 26.652,261.051 27.196,261.093 28.307 L 261.147 29.750 260.999 28.349 C 260.875 27.177,260.285 25.167,260.065 25.167 C 259.924 25.167,258.419 26.391,258.446 26.483 C 258.462 26.538,258.528 26.733,258.593 26.917 L 258.712 27.250 258.448 26.917 C 258.190 26.591,258.166 26.601,257.392 27.369 L 256.599 28.155 256.897 29.301 C 257.060 29.931,257.162 30.665,257.122 30.932 L 257.050 31.417 257.022 30.917 C 256.915 29.021,256.227 28.167,255.215 28.673 C 254.476 29.043,254.390 29.045,254.804 28.683 C 255.016 28.496,255.466 28.296,255.804 28.237 C 256.141 28.178,256.506 28.017,256.616 27.879 C 256.726 27.741,257.044 27.376,257.324 27.068 C 258.030 26.293,258.006 26.275,256.458 26.374 C 255.678 26.425,255.228 26.404,255.417 26.326 C 255.600 26.251,256.322 26.185,257.020 26.178 C 258.253 26.167,258.312 26.148,259.020 25.518 L 259.750 24.870 258.583 24.759 C 256.673 24.578,256.639 24.513,258.494 24.587 C 261.376 24.703,262.784 23.658,260.157 23.354 C 258.970 23.216,258.955 23.209,259.801 23.188 C 260.288 23.176,261.000 23.246,261.385 23.342 C 261.946 23.484,262.210 23.465,262.726 23.249 C 263.533 22.912,263.484 22.868,261.978 22.594 C 261.303 22.470,260.975 22.362,261.250 22.354 C 261.525 22.345,262.191 22.442,262.731 22.569 C 263.733 22.805,264.635 22.641,265.817 22.009 C 266.656 21.560,265.605 21.391,263.333 21.610 M264.282 24.958 C 264.240 25.119,264.205 24.988,264.205 24.667 C 264.205 24.346,264.240 24.215,264.282 24.375 C 264.323 24.535,264.323 24.798,264.282 24.958 M262.948 26.458 C 262.906 26.619,262.872 26.488,262.872 26.167 C 262.872 25.846,262.906 25.715,262.948 25.875 C 262.990 26.035,262.990 26.298,262.948 26.458 M259.262 29.662 L 259.325 30.917 259.100 29.417 C 258.976 28.592,258.826 27.767,258.768 27.583 C 258.710 27.400,258.782 27.511,258.930 27.829 C 259.077 28.147,259.227 28.972,259.262 29.662 M164.824 46.981 C 161.829 47.939,159.550 50.442,158.906 53.480 C 158.553 55.148,158.554 246.419,158.908 247.918 C 159.637 251.010,161.756 253.392,164.655 254.377 L 165.750 254.750 200.822 254.795 C 220.112 254.819,235.956 254.778,236.031 254.702 C 236.107 254.626,236.021 253.594,235.841 252.407 C 234.991 246.818,234.792 244.381,234.711 238.583 L 234.632 232.915 232.691 232.977 C 230.940 233.032,230.655 233.086,229.777 233.529 C 228.303 234.272,227.910 234.159,227.943 233.000 C 227.957 232.496,227.973 231.404,227.978 230.574 C 227.984 229.652,228.125 228.486,228.340 227.574 C 228.534 226.754,228.757 225.142,228.836 223.991 C 228.935 222.543,229.086 221.628,229.326 221.019 C 229.792 219.835,230.444 215.751,230.753 212.082 C 230.891 210.433,231.101 208.596,231.219 208.000 L 231.434 206.917 230.675 206.677 C 230.070 206.487,228.242 206.427,221.625 206.381 L 213.333 206.324 213.333 197.528 L 213.333 188.731 212.574 188.195 C 210.784 186.934,210.753 185.397,212.476 183.428 L 213.333 182.448 213.333 180.224 L 213.333 178.000 218.882 178.000 L 224.431 178.000 230.129 172.833 C 233.263 169.992,235.898 167.667,235.983 167.667 C 236.111 167.667,240.822 172.796,247.080 179.750 C 251.117 184.235,252.090 185.279,252.468 185.531 C 252.701 185.685,252.957 185.929,253.037 186.072 C 253.117 186.216,253.255 186.333,253.342 186.333 C 253.625 186.333,253.544 54.819,253.260 53.480 C 252.606 50.393,250.222 47.827,247.178 46.933 C 246.414 46.708,245.201 46.667,239.386 46.667 L 232.500 46.667 232.500 47.902 C 232.500 50.939,230.743 53.583,227.969 54.720 L 227.083 55.083 206.250 55.135 C 190.705 55.174,185.184 55.137,184.500 54.990 C 181.116 54.264,178.849 51.283,178.836 47.542 L 178.833 46.667 172.292 46.676 C 166.497 46.684,165.644 46.718,164.824 46.981 M196.126 84.708 L 196.169 99.000 181.918 99.000 L 167.667 99.000 167.667 84.778 C 167.667 76.956,167.717 70.505,167.779 70.444 C 167.840 70.382,174.234 70.351,181.987 70.374 L 196.083 70.417 196.126 84.708 M241.293 118.958 L 241.250 133.250 227.000 133.250 L 212.750 133.250 212.707 118.958 L 212.665 104.667 227.000 104.667 L 241.335 104.667 241.293 118.958 M205.333 150.667 L 205.333 165.000 202.500 165.000 L 199.667 165.000 199.667 166.833 L 199.667 168.667 185.500 168.667 L 171.333 168.667 171.333 154.500 L 171.333 140.333 174.000 140.333 L 176.667 140.333 176.667 138.444 C 176.667 137.406,176.717 136.506,176.778 136.444 C 176.839 136.383,183.289 136.333,191.111 136.333 L 205.333 136.333 205.333 150.667 M338.917 171.727 C 339.375 171.850,340.161 172.159,340.663 172.414 C 341.260 172.717,341.941 172.907,342.626 172.962 C 344.219 173.090,344.500 173.497,344.500 175.683 C 344.500 177.145,344.551 177.437,344.935 178.171 C 345.365 178.994,345.403 180.167,344.998 180.167 C 344.471 180.167,343.606 181.350,342.584 183.467 C 341.978 184.723,341.175 186.290,340.799 186.950 L 340.117 188.150 339.809 187.528 C 339.466 186.836,338.116 185.741,337.388 185.566 C 335.231 185.046,333.252 182.728,333.034 180.466 C 332.966 179.755,332.913 179.667,332.559 179.667 C 331.959 179.667,331.717 179.012,331.968 178.070 C 332.077 177.662,332.167 176.935,332.167 176.455 C 332.167 172.946,335.292 170.757,338.917 171.727 M250.813 192.678 C 249.678 193.708,248.624 194.758,248.470 195.010 C 248.316 195.263,248.016 195.523,247.803 195.588 C 246.537 195.975,246.664 196.591,248.355 198.269 L 249.681 199.583 250.003 199.167 C 250.181 198.938,250.328 198.659,250.330 198.547 C 250.333 198.367,252.792 197.500,253.300 197.500 C 253.560 197.500,253.576 194.976,253.318 194.718 C 253.186 194.586,253.186 194.442,253.318 194.196 C 253.623 193.625,253.542 191.817,253.187 191.278 L 252.875 190.806 250.813 192.678 M362.042 195.083 C 361.712 195.457,361.780 195.500,362.702 195.500 L 363.570 195.500 362.917 195.167 C 362.557 194.983,362.260 194.836,362.256 194.840 C 362.253 194.843,362.156 194.952,362.042 195.083 M53.862 213.915 C 51.872 214.280,50.565 214.821,49.570 215.692 C 48.858 216.315,48.506 216.501,47.877 216.583 C 46.085 216.820,45.475 217.099,44.858 217.965 L 44.504 218.463 45.476 220.440 C 46.010 221.527,46.695 223.167,46.997 224.083 C 47.300 225.000,48.044 226.725,48.651 227.917 L 49.755 230.083 51.836 230.981 C 56.522 233.004,68.120 236.936,68.444 236.612 C 68.470 236.586,68.422 236.306,68.337 235.991 C 68.253 235.675,68.111 234.612,68.022 233.629 C 67.817 231.351,67.468 230.578,65.683 228.445 C 61.773 223.772,60.045 220.744,58.582 216.000 L 57.889 213.750 56.486 213.720 C 55.715 213.704,54.534 213.792,53.862 213.915 M202.500 229.000 L 202.500 243.167 188.250 243.167 L 174.000 243.167 174.000 229.000 L 174.000 214.833 188.250 214.833 L 202.500 214.833 202.500 229.000 M119.375 215.712 C 119.107 216.054,118.833 217.017,118.833 217.613 C 118.833 219.836,115.193 225.211,111.515 228.420 C 109.801 229.915,109.462 230.283,107.213 233.083 C 105.097 235.719,103.450 237.065,101.795 237.510 L 101.167 237.680 101.167 240.095 C 101.167 241.880,101.221 242.528,101.375 242.578 C 101.643 242.665,108.237 243.248,112.750 243.584 C 114.675 243.727,116.888 243.906,117.667 243.981 C 118.446 244.057,119.097 244.110,119.113 244.099 C 119.152 244.073,118.720 241.948,118.482 241.000 C 117.999 239.072,117.576 237.800,116.963 236.438 C 115.562 233.326,116.082 232.280,123.812 222.667 C 124.955 221.246,125.957 219.994,126.040 219.886 C 126.131 219.765,126.114 219.546,125.994 219.323 C 125.852 219.056,125.848 218.851,125.979 218.562 C 126.136 218.219,126.116 218.167,125.832 218.167 C 124.850 218.167,121.523 216.869,120.226 215.981 C 119.700 215.621,119.496 215.557,119.375 215.712 M281.167 218.500 C 281.167 220.965,281.055 221.056,279.100 220.191 C 277.841 219.634,277.491 219.299,277.770 218.917 C 278.022 218.572,278.588 218.767,279.946 219.667 L 280.476 220.017 280.381 218.772 C 280.272 217.326,280.333 217.084,280.814 217.047 C 281.149 217.022,281.167 217.096,281.167 218.500 M308.852 217.417 C 308.907 217.600,308.914 218.271,308.866 218.908 L 308.779 220.067 309.348 219.691 C 310.991 218.606,311.653 218.482,311.664 219.258 C 311.672 219.769,308.578 220.957,308.350 220.530 C 308.142 220.139,307.941 217.783,308.078 217.349 C 308.218 216.909,308.710 216.952,308.852 217.417 M360.047 230.213 C 359.089 233.047,357.988 235.866,357.442 236.889 C 356.763 238.159,356.679 238.568,357.125 238.435 C 357.285 238.388,358.354 238.116,359.500 237.832 C 361.758 237.273,363.664 236.689,363.896 236.486 C 363.976 236.416,363.815 235.810,363.538 235.138 C 363.260 234.466,362.906 233.335,362.750 232.625 C 362.433 231.179,362.064 230.542,361.074 229.731 L 360.398 229.177 360.047 230.213 M14.618 237.083 C 13.857 237.664,12.794 239.479,12.617 240.500 C 12.557 240.848,12.542 240.828,12.523 240.378 C 12.453 238.730,11.598 238.000,9.736 238.000 C 6.225 238.000,6.056 241.028,9.443 243.248 C 10.100 243.678,10.797 244.200,10.992 244.409 L 11.348 244.787 10.716 244.892 C 10.368 244.949,9.671 244.999,9.167 245.003 C 4.931 245.036,-0.070 246.347,0.033 247.398 C 0.341 250.566,27.634 250.842,29.318 247.694 C 29.969 246.479,24.778 245.000,19.860 245.000 L 18.800 245.000 19.818 244.235 C 21.748 242.784,22.578 241.330,22.174 240.105 C 21.682 238.615,20.274 238.568,18.391 239.980 C 17.017 241.011,15.971 241.524,16.535 240.891 C 17.307 240.025,17.592 237.984,17.079 236.992 C 16.696 236.250,15.658 236.289,14.618 237.083 M244.854 248.479 C 244.529 249.371,244.496 249.749,244.537 252.112 L 244.583 254.750 245.500 254.698 C 246.515 254.640,247.667 254.381,247.667 254.211 C 247.667 253.700,245.634 247.946,245.337 247.617 C 245.271 247.544,245.054 247.932,244.854 248.479 M74.583 258.171 C 70.183 258.245,64.558 258.388,62.083 258.487 C 59.608 258.586,56.373 258.716,54.894 258.776 L 52.204 258.883 52.463 259.650 C 52.809 260.670,53.265 261.263,53.958 261.592 C 55.805 262.468,55.524 263.734,53.436 263.950 C 52.612 264.035,52.530 264.077,52.673 264.345 C 53.028 265.008,52.868 265.503,52.208 265.781 C 51.249 266.185,46.617 265.976,45.676 265.485 C 44.940 265.102,44.112 265.162,43.857 265.619 C 43.738 265.831,43.567 265.851,42.910 265.730 C 41.920 265.549,41.905 265.506,41.639 262.123 L 41.446 259.663 40.431 259.751 C 22.856 261.284,13.833 263.241,13.833 265.520 C 13.833 268.371,25.787 270.465,51.750 272.165 C 68.796 273.280,104.871 273.280,121.917 272.165 C 137.105 271.171,145.651 270.269,152.083 268.983 C 156.993 268.002,159.833 266.761,159.833 265.598 C 159.833 264.082,156.667 262.925,148.667 261.517 C 145.110 260.891,133.798 259.646,133.587 259.857 C 133.181 260.264,133.337 260.976,133.984 261.670 C 134.966 262.723,135.160 264.243,134.355 264.583 C 133.972 264.745,133.963 264.793,134.052 266.197 C 134.166 268.003,134.260 267.932,131.583 268.055 C 130.392 268.109,128.716 268.271,127.860 268.413 C 123.308 269.172,120.080 268.783,118.755 267.317 C 117.793 266.252,117.988 265.924,119.667 265.790 C 121.666 265.630,122.545 265.161,124.374 263.279 C 125.266 262.360,125.979 261.596,125.957 261.580 C 125.935 261.565,125.167 261.622,124.250 261.706 C 118.415 262.241,112.164 261.274,111.459 259.727 C 111.101 258.940,111.331 258.835,113.453 258.814 C 117.401 258.775,113.873 258.531,106.750 258.351 C 96.364 258.089,83.611 258.017,74.583 258.171 M387.009 261.111 C 386.602 261.425,385.981 261.843,385.631 262.040 C 384.843 262.483,384.902 262.769,385.766 262.691 C 386.976 262.581,387.948 261.697,387.802 260.842 C 387.757 260.579,387.652 260.615,387.009 261.111 M358.665 265.285 C 358.342 265.426,357.546 265.549,356.876 265.561 C 355.450 265.587,355.487 265.547,356.390 266.076 C 357.632 266.805,359.500 266.512,359.500 265.589 C 359.500 265.042,359.347 264.986,358.665 265.285 M362.499 269.287 L 361.082 269.345 361.138 270.054 C 361.255 271.526,360.397 271.841,356.374 271.800 C 353.953 271.775,353.897 271.782,352.604 272.318 C 348.279 274.108,342.234 272.740,344.493 270.482 L 345.020 269.955 343.885 270.053 C 329.608 271.285,327.421 273.742,339.417 275.074 C 340.700 275.217,342.387 275.408,343.167 275.500 C 351.734 276.511,376.384 276.604,386.667 275.665 C 396.313 274.784,400.000 273.984,400.000 272.772 C 400.000 271.892,397.240 271.124,391.833 270.500 C 390.321 270.325,388.708 270.137,388.250 270.081 C 387.422 269.980,387.414 269.984,387.019 270.629 C 386.114 272.108,384.402 272.833,381.816 272.833 C 378.542 272.833,377.130 271.655,378.599 270.150 L 379.199 269.536 376.808 269.439 C 373.687 269.313,364.314 269.213,362.499 269.287 M236.417 287.012 C 233.255 287.138,228.104 287.458,227.000 287.595 C 226.679 287.635,225.329 287.783,224.000 287.922 C 212.451 289.137,211.669 291.321,222.333 292.578 C 223.571 292.724,225.183 292.916,225.917 293.005 C 234.281 294.021,260.658 294.118,270.417 293.169 C 279.401 292.295,283.145 291.488,283.301 290.390 C 283.429 289.495,280.424 288.658,274.740 288.006 C 270.485 287.518,270.669 287.535,267.833 287.350 C 261.428 286.931,261.624 286.933,261.722 287.274 C 262.401 289.644,262.323 289.816,260.455 290.042 C 256.464 290.526,252.044 289.030,252.419 287.323 L 252.526 286.833 249.091 286.833 L 245.655 286.833 245.756 287.708 C 245.812 288.190,245.964 289.134,246.095 289.808 C 246.376 291.255,246.387 291.228,245.412 291.501 C 243.432 292.056,238.220 291.076,237.292 289.976 C 236.624 289.185,237.274 287.830,238.476 287.507 C 238.940 287.381,240.096 286.758,239.667 286.865 C 239.621 286.876,238.158 286.942,236.417 287.012 " stroke="none" fill="#5a82f8" fill-rule="evenodd"></path><path id="path3" d="M213.446 182.438 C 213.246 182.680,212.775 183.223,212.398 183.647 C 210.841 185.397,211.003 187.224,212.813 188.327 C 213.317 188.634,213.594 188.978,213.919 189.702 C 214.431 190.843,214.269 190.799,215.333 190.083 C 215.810 189.762,216.380 189.500,216.600 189.500 C 217.082 189.500,217.096 189.343,216.688 188.535 C 216.423 188.011,216.388 187.658,216.459 186.228 C 216.604 183.306,214.704 180.916,213.446 182.438 M251.889 185.595 C 251.834 185.738,251.826 186.544,251.872 187.386 C 251.959 189.005,252.114 189.469,253.077 191.000 C 253.394 191.504,253.684 191.992,253.722 192.083 C 253.765 192.186,253.877 192.170,254.012 192.042 C 254.134 191.927,254.542 191.833,254.919 191.833 L 255.606 191.833 255.901 190.263 C 256.316 188.060,255.870 187.146,254.096 186.563 C 253.631 186.410,253.004 186.071,252.703 185.809 C 252.067 185.257,252.023 185.246,251.889 185.595 M102.750 189.732 C 102.475 189.852,101.842 190.299,101.343 190.725 C 100.845 191.151,100.376 191.500,100.302 191.500 C 99.832 191.500,100.459 194.230,101.189 195.369 C 102.353 197.182,103.964 198.057,106.247 198.115 L 107.744 198.153 108.997 199.236 C 109.686 199.831,110.540 200.588,110.894 200.918 C 111.893 201.848,112.492 201.425,112.498 199.786 C 112.500 198.978,113.258 194.257,113.429 193.979 C 113.559 193.770,112.144 192.183,111.818 192.174 C 111.673 192.170,111.467 192.356,111.361 192.588 C 110.868 193.671,110.031 193.422,108.344 191.692 C 106.382 189.681,104.431 188.997,102.750 189.732 M238.253 190.180 C 237.985 191.245,238.908 193.395,240.096 194.476 C 240.849 195.162,241.121 195.822,241.204 197.169 L 241.250 197.920 242.500 197.284 C 243.987 196.528,245.224 196.342,246.292 196.714 C 247.037 196.974,247.053 196.965,246.897 196.383 C 246.802 196.029,246.743 196.019,245.191 196.106 C 242.511 196.256,242.346 196.178,241.750 194.482 C 240.974 192.275,240.193 191.322,239.508 191.745 C 239.058 192.023,238.667 191.653,238.664 190.947 C 238.661 190.059,238.403 189.580,238.253 190.180 M255.208 192.615 C 255.369 192.657,255.631 192.657,255.792 192.615 C 255.952 192.573,255.821 192.539,255.500 192.539 C 255.179 192.539,255.048 192.573,255.208 192.615 M117.164 207.805 C 115.716 208.568,113.506 209.500,113.147 209.500 C 113.066 209.500,113.000 209.350,113.000 209.167 C 113.000 208.778,110.965 208.653,110.733 209.027 C 110.454 209.480,110.460 211.657,110.744 212.706 C 111.279 214.683,111.659 213.975,104.210 224.870 C 102.967 226.688,102.107 227.779,101.736 228.009 L 101.167 228.361 101.167 229.844 C 101.167 231.249,101.147 231.331,100.792 231.399 C 98.948 231.754,98.377 231.921,97.492 232.364 C 95.950 233.134,96.116 233.897,97.926 234.353 C 98.800 234.573,98.880 234.895,98.162 235.299 C 96.545 236.209,97.852 237.581,100.333 237.579 C 102.826 237.577,104.948 236.113,107.576 232.583 C 108.534 231.296,109.668 230.109,112.700 227.218 C 115.774 224.288,118.377 220.289,118.673 218.046 C 118.877 216.497,119.185 215.698,120.011 214.583 C 121.548 212.509,122.213 210.726,122.133 208.893 L 122.083 207.759 121.286 207.464 C 119.556 206.823,118.930 206.874,117.164 207.805 " stroke="none" fill="#f8baba" fill-rule="evenodd"></path><path id="path4" d="M255.667 191.490 C 255.667 191.760,255.726 192.017,255.799 192.062 C 255.871 192.107,255.900 191.886,255.864 191.572 C 255.782 190.871,255.667 190.824,255.667 191.490 M339.539 196.000 C 339.539 196.321,339.573 196.452,339.615 196.292 C 339.657 196.131,339.657 195.869,339.615 195.708 C 339.573 195.548,339.539 195.679,339.539 196.000 M230.125 199.618 C 230.331 199.657,230.669 199.657,230.875 199.618 C 231.081 199.578,230.912 199.545,230.500 199.545 C 230.088 199.545,229.919 199.578,230.125 199.618 M111.042 208.782 C 111.202 208.823,111.465 208.823,111.625 208.782 C 111.785 208.740,111.654 208.705,111.333 208.705 C 111.013 208.705,110.881 208.740,111.042 208.782 M72.528 228.698 C 72.513 229.679,72.556 230.515,72.625 230.558 C 72.694 230.601,72.730 230.062,72.705 229.360 C 72.625 227.120,72.557 226.864,72.528 228.698 M302.667 233.116 C 299.262 233.387,296.035 234.225,293.167 235.586 C 290.444 236.877,288.298 237.340,283.105 237.760 L 281.792 237.866 281.897 238.641 C 282.252 241.263,283.362 244.179,284.369 245.133 C 286.222 246.889,297.636 248.581,308.500 248.711 C 316.214 248.803,316.224 248.032,308.655 237.083 C 308.021 236.167,307.418 235.154,307.314 234.833 C 306.893 233.536,305.210 232.914,302.667 233.116 " stroke="none" fill="#ababac" fill-rule="evenodd"></path><path id="path5" d="M199.947 47.458 C 201.706 47.485,204.631 47.485,206.447 47.458 C 208.264 47.431,206.825 47.409,203.250 47.409 C 199.675 47.409,198.189 47.431,199.947 47.458 M337.977 175.824 C 337.407 176.473,336.786 176.618,336.060 176.272 C 334.903 175.721,334.333 176.157,334.333 177.594 C 334.333 178.704,334.160 179.076,333.475 179.429 C 331.914 180.237,334.285 184.411,336.833 185.341 C 338.190 185.836,338.448 185.993,339.339 186.870 L 340.151 187.670 340.505 187.293 C 340.700 187.086,341.485 185.637,342.250 184.073 C 343.553 181.408,344.259 180.329,344.820 180.143 C 345.162 180.029,344.387 179.020,343.855 178.886 C 343.387 178.769,343.000 179.168,343.000 179.768 C 343.000 181.402,341.717 180.860,341.331 179.064 C 341.185 178.381,340.988 178.061,340.325 177.425 C 339.871 176.990,339.500 176.539,339.500 176.423 C 339.500 175.529,338.560 175.160,337.977 175.824 M71.052 192.841 C 69.724 193.104,69.408 193.464,68.826 195.381 C 68.475 196.539,67.951 197.198,66.441 198.387 C 65.789 198.900,65.507 199.755,65.784 200.377 C 65.938 200.721,65.952 200.717,66.245 200.220 C 66.518 199.757,66.644 199.701,67.565 199.626 C 70.216 199.411,72.414 197.218,72.626 194.577 C 72.779 192.667,72.651 192.525,71.052 192.841 M243.958 196.121 C 244.256 196.158,244.744 196.158,245.042 196.121 C 245.340 196.084,245.096 196.053,244.500 196.053 C 243.904 196.053,243.660 196.084,243.958 196.121 M54.314 197.498 C 52.302 198.315,52.268 198.334,52.470 198.537 C 52.578 198.645,52.667 198.868,52.667 199.033 C 52.667 199.198,52.685 199.333,52.708 199.332 C 52.731 199.331,53.118 199.218,53.568 199.082 C 54.018 198.945,54.843 198.828,55.401 198.821 C 55.960 198.814,56.754 198.754,57.167 198.688 L 57.917 198.567 56.833 197.869 C 55.619 197.085,55.406 197.054,54.314 197.498 M112.548 199.583 C 112.549 200.042,112.581 200.209,112.620 199.956 C 112.658 199.703,112.657 199.328,112.617 199.123 C 112.578 198.918,112.546 199.125,112.548 199.583 M54.180 199.593 C 52.353 200.110,52.410 200.025,52.657 201.867 C 53.003 204.444,53.323 205.006,54.769 205.579 C 55.533 205.883,55.373 205.498,57.168 211.333 C 59.042 217.426,59.429 218.550,60.238 220.250 C 61.631 223.176,63.038 225.284,65.634 228.333 C 67.548 230.581,67.937 231.484,68.153 234.181 C 68.389 237.107,68.989 237.960,71.088 238.348 C 72.685 238.644,72.868 238.470,73.088 236.448 C 73.203 235.389,73.480 235.113,73.978 235.563 C 74.390 235.936,75.115 235.908,75.327 235.511 C 75.891 234.458,74.599 231.770,73.077 230.829 L 72.500 230.473 72.500 228.626 L 72.500 226.779 71.105 224.431 C 68.209 219.555,66.852 216.928,65.575 213.725 C 64.804 211.793,64.740 211.692,64.175 211.522 C 63.469 211.310,62.333 210.257,62.333 209.814 C 62.333 209.260,62.000 209.479,61.987 210.042 C 61.980 210.340,61.876 210.846,61.756 211.167 C 61.420 212.064,61.265 211.423,61.391 209.654 L 61.496 208.172 61.040 208.082 C 59.306 207.741,58.735 207.288,59.167 206.598 C 60.404 204.620,60.413 204.599,60.474 203.396 C 60.651 199.895,58.246 198.442,54.180 199.593 M338.626 205.939 C 338.072 206.236,337.892 206.838,338.163 207.491 C 338.273 207.757,338.318 208.119,338.262 208.295 C 338.200 208.492,338.296 208.786,338.513 209.062 C 338.707 209.308,338.826 209.613,338.777 209.739 C 338.614 210.166,339.059 210.530,339.673 210.471 C 340.348 210.407,340.520 209.983,340.072 209.488 C 339.898 209.295,339.860 209.167,339.978 209.167 C 340.433 209.167,340.575 208.350,340.206 207.851 C 339.887 207.420,339.878 207.344,340.105 207.019 C 340.799 206.029,339.808 205.305,338.626 205.939 M112.125 208.784 C 112.331 208.824,112.669 208.824,112.875 208.784 C 113.081 208.745,112.912 208.712,112.500 208.712 C 112.087 208.712,111.919 208.745,112.125 208.784 M367.250 211.761 C 365.962 213.188,365.569 214.245,366.073 214.926 C 366.303 215.237,366.342 215.221,367.076 214.503 C 367.706 213.888,367.892 213.788,368.129 213.937 C 368.489 214.162,368.593 215.049,368.294 215.354 C 366.601 217.085,368.268 217.935,371.021 216.745 C 372.880 215.941,373.096 215.403,372.648 212.691 L 372.462 211.568 370.773 211.198 C 368.317 210.660,368.232 210.673,367.250 211.761 M280.401 217.383 C 280.347 217.554,280.354 218.213,280.418 218.847 C 280.553 220.188,280.594 220.162,279.462 219.440 C 278.245 218.664,277.897 218.572,277.786 218.997 C 277.692 219.356,278.359 219.847,279.703 220.408 C 281.009 220.953,281.167 220.731,281.167 218.348 C 281.167 217.055,280.694 216.459,280.401 217.383 M308.101 217.563 C 308.050 217.849,308.079 218.571,308.167 219.167 C 308.255 219.762,308.328 220.344,308.330 220.458 C 308.336 220.839,309.129 220.674,310.363 220.035 C 311.329 219.535,311.571 219.335,311.526 219.077 C 311.421 218.480,311.529 218.451,309.598 219.583 L 308.780 220.063 308.866 218.907 C 308.993 217.221,308.364 216.116,308.101 217.563 M281.500 238.411 C 281.500 239.992,282.733 244.633,283.305 245.205 C 283.412 245.312,283.500 245.471,283.500 245.558 C 283.500 246.260,285.605 247.295,288.250 247.892 C 289.754 248.232,295.433 249.076,297.500 249.267 C 297.821 249.296,299.021 249.409,300.167 249.518 C 301.313 249.627,304.575 249.723,307.417 249.733 L 312.583 249.750 313.227 249.350 C 313.590 249.124,313.973 248.707,314.102 248.397 C 314.477 247.500,314.391 247.312,313.841 247.826 C 311.957 249.587,292.941 248.386,286.111 246.076 C 283.848 245.310,282.470 242.875,281.895 238.625 C 281.771 237.708,281.500 237.561,281.500 238.411 M257.142 255.107 C 256.376 255.973,256.305 258.368,256.996 260.083 C 257.811 262.104,258.276 263.431,258.900 265.518 C 259.672 268.097,259.697 268.248,259.743 270.647 C 259.784 272.748,260.146 274.682,260.776 276.161 C 261.284 277.353,261.274 279.799,260.757 280.819 C 260.267 281.787,260.213 283.982,260.639 285.583 C 261.203 287.699,261.390 289.546,261.064 289.788 C 260.777 290.002,260.793 290.012,261.250 289.907 C 262.100 289.711,262.176 289.540,261.909 288.417 C 261.779 287.867,261.667 287.042,261.662 286.583 C 261.656 286.125,261.544 285.450,261.412 285.083 C 260.999 283.937,261.092 281.871,261.606 280.747 C 262.102 279.664,262.091 277.323,261.583 276.109 C 260.947 274.586,260.500 272.296,260.500 270.558 C 260.500 267.873,259.680 264.790,257.780 260.336 C 257.051 258.625,256.986 258.032,257.341 256.318 C 257.597 255.086,257.528 254.670,257.142 255.107 M244.418 260.719 C 244.348 260.885,244.379 261.560,244.488 262.219 C 244.716 263.594,244.802 273.637,244.597 274.876 C 244.483 275.570,244.540 275.853,245.053 277.135 C 245.831 279.078,245.944 279.722,245.602 280.245 C 245.308 280.693,245.232 282.000,245.500 282.000 C 245.592 282.000,245.667 281.730,245.667 281.400 C 245.667 281.070,245.790 280.541,245.940 280.224 C 246.258 279.555,246.181 279.188,245.229 276.817 C 244.683 275.457,244.665 275.345,244.869 274.650 C 245.331 273.071,244.896 259.597,244.418 260.719 M246.080 282.162 C 246.135 282.251,246.068 282.496,245.930 282.707 C 245.362 283.573,244.963 285.930,245.244 286.756 C 245.385 287.172,245.500 287.729,245.500 287.995 C 245.500 288.261,245.615 289.023,245.755 289.690 C 245.895 290.356,245.966 291.017,245.912 291.159 C 245.833 291.365,245.856 291.375,246.022 291.210 C 246.189 291.044,246.175 290.711,245.950 289.543 C 245.795 288.740,245.639 287.733,245.602 287.305 C 245.566 286.876,245.489 286.450,245.431 286.357 C 245.279 286.110,245.799 283.694,246.169 282.931 C 246.481 282.288,246.474 282.000,246.147 282.000 C 246.055 282.000,246.025 282.073,246.080 282.162 " stroke="none" fill="#848484" fill-rule="evenodd"></path><path id="path6" d="M172.825 46.624 L 178.818 46.671 178.879 47.627 L 178.940 48.583 178.929 47.583 L 178.917 46.583 172.875 46.580 L 166.833 46.577 172.825 46.624 M235.614 46.625 C 237.372 46.652,240.297 46.652,242.114 46.625 C 243.930 46.598,242.492 46.576,238.917 46.576 C 235.342 46.576,233.855 46.598,235.614 46.625 M161.158 49.125 L 160.583 49.750 161.208 49.176 C 161.790 48.641,161.910 48.500,161.783 48.500 C 161.755 48.500,161.474 48.781,161.158 49.125 M250.500 48.719 C 250.500 48.748,250.744 48.991,251.042 49.260 L 251.583 49.750 251.094 49.208 C 250.638 48.703,250.500 48.590,250.500 48.719 M171.333 154.500 L 171.333 168.667 185.500 168.667 L 199.667 168.667 199.667 166.833 L 199.667 165.000 188.167 165.000 L 176.667 165.000 176.667 152.667 L 176.667 140.333 174.000 140.333 L 171.333 140.333 171.333 154.500 M213.333 180.171 L 213.333 182.341 213.751 182.067 C 214.583 181.522,216.500 183.271,216.500 184.575 C 216.500 185.127,217.912 183.956,224.161 178.224 C 224.365 178.036,223.513 178.000,218.869 178.000 L 213.333 178.000 213.333 180.171 M213.341 197.542 L 213.333 206.333 221.375 206.322 C 227.452 206.314,229.315 206.265,229.000 206.124 C 226.601 205.050,222.762 203.022,219.725 201.224 C 218.282 200.369,218.180 200.272,217.825 199.397 C 217.495 198.582,216.406 196.849,214.472 194.057 C 213.688 192.925,213.508 192.032,213.986 191.645 C 214.452 191.267,214.413 190.764,213.833 189.667 L 213.349 188.750 213.341 197.542 M217.333 189.843 C 217.333 189.941,217.920 190.747,218.638 191.635 C 219.355 192.523,220.335 193.792,220.815 194.454 C 221.879 195.923,223.359 197.275,224.007 197.370 L 224.485 197.440 223.880 196.762 C 218.125 190.303,217.333 189.467,217.333 189.843 M247.833 197.917 C 248.331 198.421,248.776 198.833,248.822 198.833 C 248.868 198.833,248.498 198.421,248.000 197.917 C 247.502 197.412,247.057 197.000,247.011 197.000 C 246.966 197.000,247.335 197.412,247.833 197.917 M230.712 212.500 C 230.712 212.912,230.745 213.081,230.784 212.875 C 230.824 212.669,230.824 212.331,230.784 212.125 C 230.745 211.919,230.712 212.088,230.712 212.500 M174.000 229.000 L 174.000 243.167 188.250 243.167 L 202.500 243.167 202.500 229.000 L 202.500 214.833 188.250 214.833 L 174.000 214.833 174.000 229.000 M228.887 223.667 C 228.887 224.262,228.917 224.506,228.954 224.208 C 228.991 223.910,228.991 223.423,228.954 223.125 C 228.917 222.827,228.887 223.071,228.887 223.667 M233.375 232.948 C 233.535 232.990,233.798 232.990,233.958 232.948 C 234.119 232.906,233.987 232.872,233.667 232.872 C 233.346 232.872,233.215 232.906,233.375 232.948 M68.042 233.750 C 68.044 234.117,68.078 234.247,68.118 234.040 C 68.158 233.832,68.156 233.532,68.115 233.373 C 68.073 233.214,68.040 233.383,68.042 233.750 M244.381 253.417 C 244.382 253.875,244.415 254.043,244.453 253.789 C 244.491 253.536,244.490 253.161,244.451 252.956 C 244.411 252.751,244.380 252.958,244.381 253.417 M387.401 260.708 L 387.083 261.083 387.444 260.779 C 387.793 260.485,387.807 260.485,387.883 260.779 C 387.946 261.023,387.965 261.010,387.981 260.708 C 387.991 260.502,387.937 260.333,387.859 260.333 C 387.782 260.333,387.575 260.502,387.401 260.708 M119.383 261.791 C 120.190 261.821,121.465 261.821,122.217 261.791 C 122.968 261.760,122.308 261.735,120.750 261.735 C 119.192 261.735,118.577 261.760,119.383 261.791 M356.208 265.619 C 356.460 265.658,356.873 265.658,357.125 265.619 C 357.377 265.581,357.171 265.550,356.667 265.550 C 356.162 265.550,355.956 265.581,356.208 265.619 M125.960 268.618 C 126.168 268.658,126.468 268.656,126.627 268.615 C 126.786 268.573,126.617 268.540,126.250 268.542 C 125.883 268.544,125.753 268.578,125.960 268.618 M245.709 288.083 C 245.711 288.450,245.745 288.580,245.785 288.373 C 245.824 288.166,245.823 287.866,245.781 287.706 C 245.739 287.547,245.707 287.717,245.709 288.083 " stroke="none" fill="#4d5db0" fill-rule="evenodd"></path><path id="path7" d="M155.906 45.208 L 155.417 45.750 155.958 45.260 C 156.256 44.991,156.500 44.748,156.500 44.719 C 156.500 44.590,156.362 44.703,155.906 45.208 M255.667 44.719 C 255.667 44.748,255.910 44.991,256.208 45.260 L 256.750 45.750 256.260 45.208 C 255.804 44.703,255.667 44.590,255.667 44.719 M150.904 74.250 C 150.904 76.267,150.929 77.069,150.958 76.032 C 150.987 74.996,150.987 73.346,150.958 72.366 C 150.928 71.385,150.904 72.233,150.904 74.250 M150.910 114.250 C 150.910 118.192,150.932 119.780,150.958 117.780 C 150.985 115.780,150.985 112.555,150.958 110.614 C 150.931 108.672,150.910 110.308,150.910 114.250 M346.413 186.878 C 346.343 187.253,346.403 187.668,346.590 188.098 C 346.746 188.457,347.011 189.162,347.178 189.667 L 347.482 190.583 347.491 189.124 C 347.499 187.765,347.466 187.617,347.010 186.987 L 346.519 186.310 346.413 186.878 M113.714 191.250 C 113.716 191.708,113.748 191.876,113.786 191.623 C 113.825 191.369,113.824 190.994,113.784 190.789 C 113.744 190.584,113.713 190.792,113.714 191.250 M215.115 192.441 C 214.886 192.670,215.004 193.024,215.292 192.968 C 215.452 192.937,215.583 192.807,215.583 192.678 C 215.583 192.415,215.289 192.266,215.115 192.441 M215.610 193.113 C 215.549 193.173,215.500 193.322,215.500 193.444 C 215.500 193.693,215.930 193.749,216.072 193.519 C 216.185 193.335,215.760 192.962,215.610 193.113 M215.922 193.825 C 215.776 194.062,215.962 194.333,216.272 194.333 C 216.418 194.333,216.502 194.216,216.471 194.055 C 216.406 193.721,216.073 193.581,215.922 193.825 M216.333 194.750 C 216.333 194.889,216.481 195.000,216.667 195.000 C 216.852 195.000,217.000 194.889,217.000 194.750 C 217.000 194.611,216.852 194.500,216.667 194.500 C 216.481 194.500,216.333 194.611,216.333 194.750 M257.892 195.292 C 257.936 196.391,258.240 196.460,258.261 195.375 C 258.272 194.777,258.211 194.500,258.069 194.500 C 257.927 194.500,257.870 194.752,257.892 195.292 M50.622 199.473 C 50.019 200.052,49.196 200.640,48.659 200.877 C 47.844 201.237,47.710 201.366,47.531 201.962 C 47.344 202.586,47.246 202.671,46.289 203.035 C 45.429 203.363,45.201 203.534,44.966 204.029 C 44.739 204.508,44.560 204.650,44.062 204.743 C 43.613 204.827,43.136 205.151,42.345 205.908 C 41.090 207.109,40.916 207.212,39.667 207.501 C 39.162 207.617,38.321 207.927,37.796 208.190 C 37.096 208.540,36.601 208.667,35.931 208.667 C 34.824 208.667,34.825 208.665,35.094 209.952 C 35.660 212.668,37.801 215.388,40.370 216.655 C 41.407 217.167,41.878 217.512,42.263 218.043 C 43.027 219.097,43.575 219.095,44.707 218.032 C 45.787 217.019,46.324 216.740,47.500 216.584 C 48.605 216.436,48.908 216.295,49.669 215.568 C 50.807 214.482,53.746 213.667,56.522 213.667 C 57.243 213.667,57.833 213.620,57.833 213.563 C 57.833 213.361,55.636 206.421,55.480 206.129 C 55.393 205.966,55.043 205.716,54.702 205.574 C 53.895 205.237,53.214 204.574,53.015 203.931 C 52.717 202.971,52.439 200.327,52.618 200.149 C 53.254 199.512,57.233 198.947,58.278 199.344 L 58.745 199.522 58.340 199.091 C 57.815 198.531,54.567 198.640,52.920 199.272 C 52.776 199.327,52.673 199.217,52.638 198.971 C 52.526 198.180,51.777 198.367,50.622 199.473 M61.438 208.953 C 61.285 210.068,61.311 211.466,61.486 211.575 C 61.683 211.696,62.000 210.217,62.000 209.176 C 62.000 208.060,61.583 207.894,61.438 208.953 M144.372 219.333 C 144.372 219.654,144.406 219.785,144.448 219.625 C 144.490 219.465,144.490 219.202,144.448 219.042 C 144.406 218.881,144.372 219.012,144.372 219.333 M372.705 230.833 C 372.705 231.154,372.740 231.285,372.782 231.125 C 372.823 230.965,372.823 230.702,372.782 230.542 C 372.740 230.381,372.705 230.512,372.705 230.833 M232.375 232.948 C 232.535 232.990,232.798 232.990,232.958 232.948 C 233.119 232.906,232.987 232.872,232.667 232.872 C 232.346 232.872,232.215 232.906,232.375 232.948 M244.385 251.750 C 244.386 252.300,244.417 252.505,244.454 252.205 C 244.491 251.906,244.490 251.456,244.452 251.205 C 244.414 250.955,244.384 251.200,244.385 251.750 M49.928 256.537 C 49.764 256.629,49.338 256.657,48.980 256.599 L 48.330 256.496 48.438 257.414 C 48.565 258.493,48.313 258.626,47.475 257.921 C 46.009 256.688,42.333 256.711,41.742 257.957 C 41.331 258.823,41.692 264.809,42.194 265.441 C 42.471 265.790,43.547 265.810,43.981 265.474 C 44.475 265.092,45.292 265.077,45.697 265.444 C 46.302 265.991,51.199 266.191,52.167 265.708 C 52.843 265.370,53.008 264.803,52.571 264.320 C 52.290 264.010,52.302 264.000,52.964 264.000 C 53.340 264.000,53.691 263.928,53.746 263.841 C 53.800 263.753,53.954 263.723,54.089 263.775 C 54.223 263.827,54.333 263.782,54.333 263.675 C 54.333 263.568,54.402 263.523,54.487 263.575 C 54.674 263.691,55.167 263.224,55.167 262.930 C 55.167 262.655,54.509 261.904,54.315 261.958 C 54.234 261.981,54.167 261.921,54.167 261.823 C 54.167 261.726,54.092 261.693,54.000 261.750 C 53.908 261.807,53.833 261.761,53.833 261.649 C 53.833 261.536,53.786 261.492,53.728 261.550 C 53.669 261.608,53.408 261.377,53.146 261.036 C 52.885 260.696,52.599 260.331,52.512 260.226 C 52.425 260.121,52.395 259.994,52.447 259.942 C 52.856 259.533,50.431 256.256,49.928 256.537 M388.051 260.117 C 387.942 260.156,387.892 260.293,387.941 260.421 C 388.383 261.573,385.869 263.457,384.930 262.678 C 384.774 262.548,384.525 262.565,384.037 262.737 C 383.665 262.868,383.015 263.027,382.591 263.091 C 381.608 263.238,381.338 263.716,381.142 265.647 C 380.936 267.678,380.738 268.262,380.048 268.877 C 377.887 270.806,377.450 271.485,378.505 271.274 C 378.878 271.199,379.224 271.292,379.822 271.625 C 380.573 272.045,380.682 272.063,381.316 271.872 C 381.971 271.675,382.704 271.480,384.026 271.149 C 385.164 270.864,386.220 269.690,387.234 267.581 C 387.763 266.479,388.437 265.366,388.837 264.932 C 389.949 263.726,390.203 262.784,389.673 261.827 C 388.950 260.522,388.435 259.979,388.051 260.117 M350.927 266.489 C 349.129 268.234,348.764 268.477,347.313 268.894 C 346.798 269.042,345.918 269.470,345.357 269.844 L 344.339 270.524 344.592 271.137 C 345.048 272.243,345.443 272.345,347.650 271.926 C 351.667 271.163,352.537 270.958,353.712 270.498 C 354.592 270.153,355.501 269.944,356.548 269.845 C 358.806 269.631,361.058 269.158,360.842 268.942 C 360.746 268.846,360.659 268.200,360.650 267.508 C 360.624 265.514,359.974 264.502,359.508 265.728 C 359.167 266.625,357.382 266.820,356.292 266.079 C 355.951 265.848,354.982 265.479,354.138 265.260 L 352.603 264.861 350.927 266.489 M122.125 268.784 C 122.331 268.824,122.669 268.824,122.875 268.784 C 123.081 268.745,122.912 268.712,122.500 268.712 C 122.087 268.712,121.919 268.745,122.125 268.784 " stroke="none" fill="#444c94" fill-rule="evenodd"></path><path id="path8" d="M174.887 70.458 C 178.813 70.483,185.188 70.483,189.054 70.458 C 192.920 70.433,189.708 70.413,181.917 70.413 C 174.125 70.413,170.962 70.433,174.887 70.458 M174.804 98.958 C 178.776 98.983,185.226 98.983,189.138 98.958 C 193.049 98.933,189.800 98.913,181.917 98.913 C 174.033 98.913,170.833 98.933,174.804 98.958 M212.707 118.958 L 212.750 133.250 226.917 133.251 L 241.083 133.253 226.958 133.209 L 212.833 133.165 212.833 119.000 L 212.833 104.835 227.125 104.792 L 241.417 104.748 227.041 104.707 L 212.665 104.667 212.707 118.958 M176.743 136.542 C 176.700 136.656,176.683 143.087,176.707 150.833 L 176.750 164.917 191.000 164.918 L 205.250 164.919 191.042 164.875 L 176.833 164.831 176.833 150.667 L 176.833 136.502 191.125 136.458 L 205.417 136.415 191.120 136.374 C 179.806 136.342,176.806 136.377,176.743 136.542 M235.240 168.208 L 234.750 168.750 235.292 168.260 C 235.797 167.804,235.910 167.667,235.781 167.667 C 235.752 167.667,235.509 167.910,235.240 168.208 M236.500 168.219 C 236.500 168.248,236.744 168.491,237.042 168.760 L 237.583 169.250 237.094 168.708 C 236.638 168.203,236.500 168.090,236.500 168.219 M238.167 170.052 C 238.167 170.081,238.410 170.325,238.708 170.594 L 239.250 171.083 238.760 170.542 C 238.304 170.037,238.167 169.923,238.167 170.052 M231.740 171.375 L 231.250 171.917 231.792 171.427 C 232.297 170.971,232.410 170.833,232.281 170.833 C 232.252 170.833,232.009 171.077,231.740 171.375 M239.833 171.885 C 239.833 171.914,240.077 172.158,240.375 172.427 L 240.917 172.917 240.427 172.375 C 239.971 171.870,239.833 171.757,239.833 171.885 M243.000 175.385 C 243.000 175.414,243.244 175.658,243.542 175.927 L 244.083 176.417 243.594 175.875 C 243.138 175.370,243.000 175.257,243.000 175.385 M245.000 177.583 C 245.311 177.904,245.603 178.167,245.649 178.167 C 245.695 178.167,245.478 177.904,245.167 177.583 C 244.856 177.262,244.564 177.000,244.518 177.000 C 244.472 177.000,244.689 177.262,245.000 177.583 M212.324 183.625 L 211.750 184.250 212.375 183.676 C 212.719 183.360,213.000 183.078,213.000 183.051 C 213.000 182.923,212.859 183.043,212.324 183.625 M211.205 185.833 C 211.205 186.154,211.240 186.285,211.282 186.125 C 211.323 185.965,211.323 185.702,211.282 185.542 C 211.240 185.381,211.205 185.512,211.205 185.833 M251.240 192.208 L 250.750 192.750 251.292 192.260 C 251.797 191.804,251.910 191.667,251.781 191.667 C 251.752 191.667,251.509 191.910,251.240 192.208 M249.573 193.708 L 249.083 194.250 249.625 193.760 C 250.130 193.304,250.243 193.167,250.115 193.167 C 250.086 193.167,249.842 193.410,249.573 193.708 " stroke="none" fill="#84a4fc" fill-rule="evenodd"></path></g></svg>